<?xml version="1.0" encoding="UTF-8"?>
<!DOCTYPE svg PUBLIC "-//W3C//DTD SVG 1.1//EN" "http://www.w3.org/Graphics/SVG/1.1/DTD/svg11.dtd">
<!-- Creator: CorelDRAW 2021 (64-Bit) -->
<svg xmlns="http://www.w3.org/2000/svg" xml:space="preserve" width="43mm" height="42mm" version="1.1" style="shape-rendering:geometricPrecision; text-rendering:geometricPrecision; image-rendering:optimizeQuality; fill-rule:evenodd; clip-rule:evenodd"
viewBox="0 0 4300 4200"
 xmlns:xlink="http://www.w3.org/1999/xlink"
 xmlns:xodm="http://www.corel.com/coreldraw/odm/2003">
 <defs>
  <style type="text/css">
   <![CDATA[
    .fil0 {fill:#2F2C2A}
    .fil1 {fill:#2F2C2A;fill-rule:nonzero}
   ]]>
  </style>
 </defs>
 <g id="__x0023_Layer_x0020_1">
  <metadata id="CorelCorpID_0Corel-Layer"/>
  <g id="_2417365766848">
   <path class="fil0" d="M2149.47 14.37c-1187.25,0 -2150,962.54 -2150,2149.98 0,949.93 616.04,1755.84 1470.31,2040.14 107.43,19.89 146.89,-46.66 146.89,-103.44 0,-51.25 -1.98,-220.64 -2.92,-400.29 -598.12,130.07 -724.34,-253.68 -724.34,-253.68 -97.8,-248.49 -238.72,-314.59 -238.72,-314.59 -195.08,-133.43 14.7,-130.69 14.7,-130.69 215.89,15.16 329.59,221.59 329.59,221.59 191.74,328.66 502.96,233.64 625.66,178.7 19.29,-138.93 74.99,-233.82 136.5,-287.5 -477.55,-54.35 -979.58,-238.72 -979.58,-1062.52 0,-234.73 84.01,-426.53 221.55,-577.1 -22.32,-54.16 -95.92,-272.82 20.83,-568.99 0,0 180.55,-57.75 591.38,220.42 171.51,-47.65 355.44,-71.54 538.15,-72.38 182.71,0.84 366.77,24.73 538.61,72.38 410.37,-278.17 590.65,-220.42 590.65,-220.42 117.03,296.17 43.42,514.83 21.1,568.99 137.86,150.57 221.27,342.37 221.27,577.1 0,825.78 -502.97,1007.59 -981.73,1060.82 77.11,66.72 145.82,197.55 145.82,398.14 0,287.67 -2.47,519.2 -2.47,590.02 0,57.23 38.7,124.27 147.66,103.16 853.82,-284.62 1469.09,-1090.24 1469.09,-2039.86 0,-1187.44 -962.61,-2149.98 -2150,-2149.98z"/>
   <path class="fil1" d="M813.79 3101.28c-4.72,10.71 -21.56,13.9 -36.86,6.56 -15.61,-7.01 -24.33,-21.59 -19.29,-32.3 4.62,-10.99 21.45,-14.04 37.03,-6.71 15.61,7.03 24.51,21.73 19.12,32.45z"/>
   <path class="fil1" d="M900.89 3198.42c-10.26,9.49 -30.32,5.07 -43.91,-9.94 -14.08,-14.99 -16.7,-35.05 -6.3,-44.68 10.58,-9.5 30,-5.05 44.09,9.94 14.08,15.16 16.83,35.05 6.12,44.68z"/>
   <path class="fil1" d="M985.65 3322.23c-13.18,9.17 -34.73,0.58 -48.05,-18.53 -13.18,-19.12 -13.18,-42.07 0.32,-51.25 13.32,-9.18 34.55,-0.91 48.05,18.05 13.14,19.43 13.14,42.37 -0.32,51.73z"/>
   <path class="fil1" d="M1101.78 3441.87c-11.78,13 -36.89,9.49 -55.25,-8.24 -18.8,-17.32 -24.02,-41.94 -12.23,-54.93 11.96,-13.01 37.2,-9.36 55.7,8.23 18.67,17.32 24.33,42.08 11.78,54.94z"/>
   <path class="fil1" d="M1262 3511.34c-5.22,16.82 -29.38,24.47 -53.72,17.32 -24.33,-7.38 -40.23,-27.09 -35.33,-44.1 5.04,-16.96 29.34,-24.92 53.86,-17.27 24.3,7.33 40.22,26.9 35.19,44.05z"/>
   <path class="fil1" d="M1437.97 3524.21c0.58,17.72 -20.07,32.43 -45.63,32.75 -25.69,0.58 -46.51,-13.77 -46.79,-31.23 0,-17.9 20.2,-32.44 45.89,-32.89 25.56,-0.49 46.53,13.77 46.53,31.37z"/>
   <path class="fil1" d="M1601.68 3496.35c3.06,17.28 -14.7,35.05 -40.08,39.77 -24.97,4.6 -48.05,-6.11 -51.25,-23.26 -3.09,-17.72 14.99,-35.49 39.91,-40.08 25.42,-4.41 48.19,5.98 51.42,23.57z"/>
  </g>
 </g>
</svg>
